<svg width="64" height="64" viewBox="0 0 64 64" fill="none" xmlns="http://www.w3.org/2000/svg">
<rect width="64" height="64" rx="10" fill="#0043FE" fill-opacity="0.2"/>
<path d="M49.25 32V22.4167H18.5833C17.5667 22.4167 16.5916 22.0128 15.8728 21.2939C15.1539 20.575 14.75 19.6 14.75 18.5833C14.75 17.5667 15.1539 16.5916 15.8728 15.8728C16.5916 15.1539 17.5667 14.75 18.5833 14.75H45.4167V22.4167" stroke="#0043FE" stroke-width="3" stroke-linecap="round" stroke-linejoin="round"/>
<path d="M14.75 18.5833V45.4166C14.75 46.4332 15.1539 47.4083 15.8728 48.1272C16.5916 48.846 17.5667 49.2499 18.5833 49.2499H49.25V39.6666" stroke="#0043FE" stroke-width="3" stroke-linecap="round" stroke-linejoin="round"/>
<path d="M43.5003 32C42.4837 32 41.5086 32.4039 40.7898 33.1228C40.0709 33.8416 39.667 34.8167 39.667 35.8333C39.667 36.85 40.0709 37.825 40.7898 38.5439C41.5086 39.2628 42.4837 39.6667 43.5003 39.6667H51.167V32H43.5003Z" stroke="#0043FE" stroke-width="3" stroke-linecap="round" stroke-linejoin="round"/>
</svg>
